name ./resultDataOpenSim/trcMotMarkerGrf/sub09/grf-02-08.mot
datacolumns 19
datarows 30
range 0.97600000 1.09200000
endheader

                time	     ground_force_vx	     ground_force_vy	     ground_force_vz	     ground_force_px	     ground_force_py	     ground_force_pz	   l_ground_force_vx	   l_ground_force_vy	   l_ground_force_vz	   l_ground_force_px	   l_ground_force_py	   l_ground_force_pz	     ground_torque_x	     ground_torque_y	     ground_torque_z	   l_ground_torque_x	   l_ground_torque_y	   l_ground_torque_z	
          0.97600000	          0.00000000	          0.00000000	          0.00000000	          0.00000000	          0.00000000	          0.00000000	         -6.26458240	        453.45090765	         16.31382099	          0.18379749	         -0.02500000	          0.00258684	          0.00000000	          0.00000000	          0.00000000	          0.00000000	         -2.43107591	          0.00000000	
          0.98000000	          0.00000000	          0.00000000	          0.00000000	          0.00000000	          0.00000000	          0.00000000	         -3.93798923	        461.99036691	         16.42818336	          0.18412769	         -0.02500000	          0.00271304	          0.00000000	          0.00000000	          0.00000000	          0.00000000	         -2.62460483	          0.00000000	
          0.98400000	          0.00000000	          0.00000000	          0.00000000	          0.00000000	          0.00000000	          0.00000000	         -1.47623409	        470.84288149	         16.26432139	          0.18453567	         -0.02500000	          0.00292705	          0.00000000	          0.00000000	          0.00000000	          0.00000000	         -2.84374074	          0.00000000	
          0.98800000	          0.00000000	          0.00000000	          0.00000000	          0.00000000	          0.00000000	          0.00000000	          1.16690077	        479.90898218	         15.73976100	          0.18503792	         -0.02500000	          0.00320773	          0.00000000	          0.00000000	          0.00000000	          0.00000000	         -3.09654683	          0.00000000	
          0.99200000	          0.00000000	          0.00000000	          0.00000000	          0.00000000	          0.00000000	          0.00000000	          4.08525367	        489.10440930	         14.82717704	          0.18563938	         -0.02500000	          0.00352167	          0.00000000	          0.00000000	          0.00000000	          0.00000000	         -3.38737032	          0.00000000	
          0.99600000	          0.00000000	          0.00000000	          0.00000000	          0.00000000	          0.00000000	          0.00000000	          7.40651936	        498.36868249	         13.57402506	          0.18631920	         -0.02500000	          0.00383891	          0.00000000	          0.00000000	          0.00000000	          0.00000000	         -3.71488513	          0.00000000	
          1.00000000	          0.00000000	          0.00000000	          0.00000000	          0.00000000	          0.00000000	          0.00000000	         11.24396736	        507.67795384	         12.12327859	          0.18705535	         -0.02500000	          0.00414489	          0.00000000	          0.00000000	          0.00000000	          0.00000000	         -4.07167876	          0.00000000	
          1.00400000	          0.00000000	          0.00000000	          0.00000000	          0.00000000	          0.00000000	          0.00000000	         15.64154598	        517.05317059	         10.67906578	          0.18780290	         -0.02500000	          0.00440928	          0.00000000	          0.00000000	          0.00000000	          0.00000000	         -4.44553863	          0.00000000	
          1.00800000	          0.00000000	          0.00000000	          0.00000000	          0.00000000	          0.00000000	          0.00000000	         20.55799848	        526.57587255	          9.42882795	          0.18851448	         -0.02500000	          0.00461397	          0.00000000	          0.00000000	          0.00000000	          0.00000000	         -4.82191468	          0.00000000	
          1.01200000	          0.00000000	          0.00000000	          0.00000000	          0.00000000	          0.00000000	          0.00000000	         25.89064844	        536.37920401	          8.49501083	          0.18913500	         -0.02500000	          0.00476468	          0.00000000	          0.00000000	          0.00000000	          0.00000000	         -5.18667800	          0.00000000	
          1.01600000	          0.00000000	          0.00000000	          0.00000000	          0.00000000	          0.00000000	          0.00000000	         31.51028601	        546.58729746	          7.92454199	          0.18961811	         -0.02500000	          0.00487179	          0.00000000	          0.00000000	          0.00000000	          0.00000000	         -5.52835475	          0.00000000	
          1.02000000	          0.00000000	          0.00000000	          0.00000000	          0.00000000	          0.00000000	          0.00000000	         37.29975136	        557.24835414	          7.68786293	          0.18997033	         -0.02500000	          0.00496160	          0.00000000	          0.00000000	          0.00000000	          0.00000000	         -5.83926046	          0.00000000	
          1.02400000	          0.00000000	          0.00000000	          0.00000000	          0.00000000	          0.00000000	          0.00000000	         43.17329900	        568.30389059	          7.70461487	          0.19023736	         -0.02500000	          0.00506753	          0.00000000	          0.00000000	          0.00000000	          0.00000000	         -6.11532128	          0.00000000	
          1.02800000	          0.00000000	          0.00000000	          0.00000000	          0.00000000	          0.00000000	          0.00000000	         49.06189062	        579.62116460	          7.89772408	          0.19049942	         -0.02500000	          0.00520632	          0.00000000	          0.00000000	          0.00000000	          0.00000000	         -6.35490277	          0.00000000	
          1.03200000	          0.00000000	          0.00000000	          0.00000000	          0.00000000	          0.00000000	          0.00000000	         54.89790387	        591.09103235	          8.23450636	          0.19081288	         -0.02500000	          0.00536835	          0.00000000	          0.00000000	          0.00000000	          0.00000000	         -6.55740670	          0.00000000	
          1.03600000	          0.00000000	          0.00000000	          0.00000000	          0.00000000	          0.00000000	          0.00000000	         60.61646297	        602.71646196	          8.73540673	          0.19118090	         -0.02500000	          0.00552838	          0.00000000	          0.00000000	          0.00000000	          0.00000000	         -6.72233777	          0.00000000	
          1.04000000	          0.00000000	          0.00000000	          0.00000000	          0.00000000	          0.00000000	          0.00000000	         66.15736059	        614.62194814	          9.45373650	          0.19156622	         -0.02500000	          0.00566156	          0.00000000	          0.00000000	          0.00000000	          0.00000000	         -6.84905490	          0.00000000	
          1.04400000	          0.00000000	          0.00000000	          0.00000000	          0.00000000	          0.00000000	          0.00000000	         71.46305309	        626.98541947	         10.43216137	          0.19190722	         -0.02500000	          0.00574753	          0.00000000	          0.00000000	          0.00000000	          0.00000000	         -6.93695948	          0.00000000	
          1.04800000	          0.00000000	          0.00000000	          0.00000000	          0.00000000	          0.00000000	          0.00000000	         76.47958646	        639.92560338	         11.66802690	          0.19215830	         -0.02500000	          0.00578201	          0.00000000	          0.00000000	          0.00000000	          0.00000000	         -6.98577360	          0.00000000	
          1.05200000	          0.00000000	          0.00000000	          0.00000000	          0.00000000	          0.00000000	          0.00000000	         81.16527037	        653.40155547	         13.11795578	          0.19230721	         -0.02500000	          0.00577552	          0.00000000	          0.00000000	          0.00000000	          0.00000000	         -6.99578791	          0.00000000	
          1.05600000	          0.00000000	          0.00000000	          0.00000000	          0.00000000	          0.00000000	          0.00000000	         85.50717170	        667.19437852	         14.71665003	          0.19237620	         -0.02500000	          0.00574424	          0.00000000	          0.00000000	          0.00000000	          0.00000000	         -6.96815010	          0.00000000	
          1.06000000	          0.00000000	          0.00000000	          0.00000000	          0.00000000	          0.00000000	          0.00000000	         89.52926916	        680.97833742	         16.37959486	          0.19240485	         -0.02500000	          0.00570466	          0.00000000	          0.00000000	          0.00000000	          0.00000000	         -6.90515702	          0.00000000	
          1.06400000	          0.00000000	          0.00000000	          0.00000000	          0.00000000	          0.00000000	          0.00000000	         93.28145838	        694.41517679	         18.01019991	          0.19242798	         -0.02500000	          0.00567314	          0.00000000	          0.00000000	          0.00000000	          0.00000000	         -6.81033275	          0.00000000	
          1.06800000	          0.00000000	          0.00000000	          0.00000000	          0.00000000	          0.00000000	          0.00000000	         96.82387873	        707.21226636	         19.52275164	          0.19249155	         -0.02500000	          0.00567186	          0.00000000	          0.00000000	          0.00000000	          0.00000000	         -6.68816517	          0.00000000	
          1.07200000	          0.00000000	          0.00000000	          0.00000000	          0.00000000	          0.00000000	          0.00000000	        100.21450823	        719.14319651	         20.85463329	          0.19265816	         -0.02500000	          0.00572406	          0.00000000	          0.00000000	          0.00000000	          0.00000000	         -6.54360745	          0.00000000	
          1.07600000	          0.00000000	          0.00000000	          0.00000000	          0.00000000	          0.00000000	          0.00000000	        103.50101169	        730.06979127	         21.96060198	          0.19296419	         -0.02500000	          0.00583741	          0.00000000	          0.00000000	          0.00000000	          0.00000000	         -6.38150798	          0.00000000	
          1.08000000	          0.00000000	          0.00000000	          0.00000000	          0.00000000	          0.00000000	          0.00000000	        106.72597634	        739.95360056	         22.80873201	          0.19339926	         -0.02500000	          0.00600559	          0.00000000	          0.00000000	          0.00000000	          0.00000000	         -6.20607140	          0.00000000	
          1.08400000	          0.00000000	          0.00000000	          0.00000000	          0.00000000	          0.00000000	          0.00000000	        109.93537243	        748.80600282	         23.38731483	          0.19392746	         -0.02500000	          0.00621881	          0.00000000	          0.00000000	          0.00000000	          0.00000000	         -6.02048185	          0.00000000	
          1.08800000	          0.00000000	          0.00000000	          0.00000000	          0.00000000	          0.00000000	          0.00000000	        113.16939474	        756.61123963	         23.71004984	          0.19452144	         -0.02500000	          0.00646957	          0.00000000	          0.00000000	          0.00000000	          0.00000000	         -5.82684432	          0.00000000	
          1.09200000	          0.00000000	          0.00000000	          0.00000000	          0.00000000	          0.00000000	          0.00000000	        116.44472748	        763.29823569	         23.80440033	          0.19516259	         -0.02500000	          0.00674117	          0.00000000	          0.00000000	          0.00000000	          0.00000000	         -5.62645408	          0.00000000	
